<svg xmlns="http://www.w3.org/2000/svg" viewBox="0 0 200 200">
  <path
    d="M109.1,173.8c-3.8,2.8-5.9,6.2-5.9,13.1v59.6c-18.3,6.9-37.9,17.6-56.5,30.3C37,270,23.9,262.7,11.9,260 c-0.7,2.1-1.4,5.9-1.4,10.7c0,2.1,0,5.2,0,5.2c-3.1-1-9-2.8-9-2.8c1-41,26.5-73.1,39.7-89c-10-5.5-30-17.9-36.5-20.7V162 c3.8-2.1,5.9-5.5,5.9-12.4v-50c17.6-5.2,37.2-15.5,51.7-26.2c11,8.6,22.4,17.9,35.2,25.5c2.1-4.8,1.7-9.7,3.1-15.5 c2.1,1.7,6.2,3.4,7.6,5.2c-2.1,14.5-10.3,35.2-33.4,64.8l34.5,19V173.8z M68.1,252.4v-68.3l-10.7-5.5C47,190,26,218.2,19.5,233.4 c18.3,1,36.9,10.7,47.9,19.3L68.1,252.4z M47.4,96.2L46,96.9v54.8c3.1,1.7,9.3,5.2,12.8,6.6c8.3-8.3,19.7-24.5,24.8-34.8 C69.4,116.5,54.3,103.1,47.4,96.2z"
    fill="#000"
  />
</svg>
